<svg xmlns="http://www.w3.org/2000/svg" version="1.1" xmlns:xlink="http://www.w3.org/1999/xlink" xmlns:svgjs="http://svgjs.dev/svgjs" width="1440" height="560" preserveAspectRatio="none" viewBox="0 0 1440 560"><g mask="url(&quot;#SvgjsMask1000&quot;)" fill="none"><rect width="1440" height="560" x="0" y="0" fill="#0e2a47"></rect><path d="M 0,174 C 57.6,154.8 172.8,79.2 288,78 C 403.2,76.8 460.8,168 576,168 C 691.2,168 748.8,70.4 864,78 C 979.2,85.6 1036.8,196.8 1152,206 C 1267.2,215.2 1382.4,140.4 1440,124L1440 560L0 560z" fill="#184a7e"></path><path d="M 0,434 C 96,421.4 288,372.2 480,371 C 672,369.8 768,428.8 960,428 C 1152,427.2 1344,379.2 1440,367L1440 560L0 560z" fill="#2264ab"></path></g><defs><mask id="SvgjsMask1000"><rect width="1440" height="560" fill="#ffffff"></rect></mask></defs></svg>